<?xml version="1.0" standalone="no"?>
<!DOCTYPE svg PUBLIC "-//W3C//DTD SVG 20010904//EN"
 "http://www.w3.org/TR/2001/REC-SVG-20010904/DTD/svg10.dtd">
<svg version="1.0" xmlns="http://www.w3.org/2000/svg"
 width="600.000000pt" height="600.000000pt" viewBox="0 0 600.000000 600.000000"
 preserveAspectRatio="xMidYMid meet">
<metadata>
Created by potrace 1.11, written by Peter Selinger 2001-2013
</metadata>
<g transform="translate(0.000000,600.000000) scale(0.100000,-0.100000)"
fill="#000000" stroke="none">
<path d="M2925 4741 c-16 -5 -64 -18 -105 -29 -170 -46 -1366 -371 -1770 -482
-239 -65 -540 -147 -669 -181 -128 -34 -242 -70 -253 -78 -24 -20 -33 -87 -16
-121 8 -14 25 -30 38 -37 14 -6 263 -77 555 -156 621 -170 799 -219 803 -223
2 -1 -21 -35 -52 -75 -129 -170 -207 -375 -210 -549 -1 -61 3 -82 21 -110 23
-37 126 -127 203 -176 25 -16 46 -34 47 -40 1 -5 4 -35 7 -65 3 -31 10 -68 16
-84 9 -25 7 -32 -17 -59 -15 -17 -31 -32 -35 -34 -5 -2 -8 -10 -8 -18 0 -8 -9
-24 -20 -36 -11 -12 -20 -35 -20 -51 0 -15 -5 -38 -11 -49 -6 -12 -12 -55 -14
-97 -1 -42 -5 -87 -9 -101 -4 -14 -7 -67 -6 -119 1 -89 0 -93 -19 -88 -18 4
-19 2 -10 -14 10 -20 10 -109 -1 -109 -3 0 -7 -17 -8 -37 -2 -21 -7 -39 -12
-41 -6 -2 -10 -17 -10 -33 0 -18 -4 -28 -10 -24 -5 3 -11 1 -11 -4 -1 -6 -2
-16 -3 -21 0 -6 -7 -15 -15 -19 -7 -5 -11 -13 -7 -19 3 -6 2 -13 -4 -17 -15
-9 -12 -54 5 -72 8 -8 13 -18 10 -23 -7 -12 17 -28 47 -32 15 -2 30 -7 34 -11
4 -4 20 -7 36 -7 15 0 28 -4 28 -10 0 -6 43 -10 110 -10 97 0 114 -3 132 -20
12 -11 18 -20 14 -20 -5 0 -3 -7 4 -15 7 -8 16 -15 21 -15 15 0 10 27 -6 34
-22 8 -18 36 5 36 11 0 20 -4 20 -10 0 -5 11 -10 25 -10 14 0 25 5 25 10 0 6
7 10 15 10 8 0 15 5 15 10 0 6 16 10 36 10 24 0 33 4 28 12 -5 7 -3 8 7 2 21
-13 39 -14 39 -2 0 6 11 8 25 6 14 -3 28 -1 31 3 3 5 -1 9 -9 9 -8 0 -17 7
-21 15 -4 10 1 15 14 15 11 0 20 5 20 10 0 6 6 10 14 10 8 0 17 7 20 16 8 21
8 21 -6 36 -17 17 -33 60 -71 183 -32 106 -46 212 -50 387 -1 58 -5 104 -9
101 -13 -7 -14 63 -2 117 4 20 3 23 -7 13 -17 -17 -30 -17 -28 0 3 28 -2 46
-26 81 -13 20 -22 36 -18 36 3 0 -2 9 -12 20 -17 18 -17 20 -2 14 10 -3 17 -1
17 5 0 6 -13 11 -30 11 -16 0 -30 5 -30 10 0 6 5 10 10 10 6 0 10 7 10 15 0
12 4 13 25 3 16 -7 21 -14 14 -18 -8 -6 -8 -10 1 -15 7 -4 15 -2 19 4 5 8 19
5 49 -9 249 -120 883 -321 1062 -337 96 -8 306 40 625 144 437 142 974 395
1125 531 l55 50 0 143 c0 110 -5 158 -19 204 -45 150 -96 250 -178 348 -22 27
-39 50 -37 52 2 2 54 17 114 33 1092 296 1232 336 1255 357 41 37 21 137 -32
160 -18 7 -196 58 -395 111 -199 54 -359 103 -356 108 3 5 1 6 -6 2 -6 -4 -96
15 -199 43 -103 28 -295 79 -427 115 -244 66 -1070 292 -1270 348 -114 31
-228 43 -280 29z m-1025 -3311 c0 -5 -5 -10 -11 -10 -5 0 -7 5 -4 10 3 6 8 10
11 10 2 0 4 -4 4 -10z m40 -100 c0 -5 -2 -10 -4 -10 -3 0 -8 5 -11 10 -3 6 -1
10 4 10 6 0 11 -4 11 -10z m20 -40 c0 -5 -4 -10 -10 -10 -5 0 -10 5 -10 10 0
6 5 10 10 10 6 0 10 -4 10 -10z m-20 -54 c0 -2 -7 -9 -15 -16 -13 -11 -14 -10
-9 4 5 14 24 23 24 12z"/>
<path d="M1478 2483 c-10 -2 -18 -9 -18 -14 0 -14 16 -11 30 6 7 8 11 14 9 14
-2 -1 -12 -3 -21 -6z"/>
<path d="M1460 2429 c0 -5 5 -7 10 -4 6 3 10 8 10 11 0 2 -4 4 -10 4 -5 0 -10
-5 -10 -11z"/>
<path d="M1480 2411 c0 -5 5 -13 10 -16 6 -3 10 -2 10 4 0 5 -4 13 -10 16 -5
3 -10 2 -10 -4z"/>
<path d="M1476 2344 c-9 -24 -7 -27 9 -10 17 17 19 26 6 26 -5 0 -12 -7 -15
-16z"/>
<path d="M1497 2307 c3 -15 9 -27 14 -27 13 0 11 13 -5 35 -13 18 -14 18 -9
-8z"/>
<path d="M1440 2244 c0 -8 5 -12 10 -9 6 3 10 10 10 16 0 5 -4 9 -10 9 -5 0
-10 -7 -10 -16z"/>
<path d="M1878 2211 c8 -4 12 -10 11 -12 -2 -2 2 -12 8 -23 7 -12 13 -15 17
-7 4 6 2 11 -3 11 -6 0 -11 9 -11 20 0 12 -7 20 -17 20 -14 0 -15 -2 -5 -9z"/>
<path d="M1322 2019 c-1 -36 2 -59 8 -59 7 0 9 21 7 55 -5 75 -12 77 -15 4z"/>
<path d="M1367 1943 c-11 -10 -8 -43 3 -43 5 0 9 11 8 25 -3 28 -2 27 -11 18z"/>
<path d="M1349 1878 c-6 -21 -5 -39 2 -44 5 -3 8 6 7 20 -2 22 -6 33 -9 24z"/>
<path d="M1307 1819 c7 -7 15 -10 18 -7 3 3 -2 9 -12 12 -14 6 -15 5 -6 -5z"/>
<path d="M2020 1530 c0 -16 5 -30 10 -30 6 0 10 14 10 30 0 17 -4 30 -10 30
-5 0 -10 -13 -10 -30z"/>
<path d="M1980 1510 c0 -5 5 -10 10 -10 6 0 10 5 10 10 0 6 -4 10 -10 10 -5 0
-10 -4 -10 -10z"/>
<path d="M2043 1494 c-3 -8 -2 -19 4 -25 5 -5 9 1 11 16 2 28 -6 33 -15 9z"/>
<path d="M1985 1470 c3 -5 8 -10 11 -10 2 0 4 5 4 10 0 6 -5 10 -11 10 -5 0
-7 -4 -4 -10z"/>
<path d="M2017 1448 c-3 -8 4 -13 18 -13 18 0 21 3 13 13 -6 6 -14 12 -18 12
-4 0 -10 -6 -13 -12z"/>
<path d="M2040 1411 c0 -5 7 -12 16 -15 14 -5 15 -4 4 9 -14 17 -20 19 -20 6z"/>
<path d="M2036 1372 c-2 -4 -1 -14 3 -21 6 -9 11 -10 15 -2 4 6 2 11 -4 11 -6
0 -8 5 -5 10 3 6 4 10 1 10 -3 0 -7 -4 -10 -8z"/>
<path d="M2015 1250 c3 -5 15 -10 26 -10 10 0 19 5 19 10 0 6 -12 10 -26 10
-14 0 -23 -4 -19 -10z"/>
<path d="M1899 1179 c0 -2 -2 -12 -4 -21 -2 -10 3 -18 10 -18 7 0 12 7 11 15
-2 14 -15 33 -17 24z"/>
<path d="M1640 1130 c0 -5 5 -10 10 -10 6 0 10 5 10 10 0 6 -4 10 -10 10 -5 0
-10 -4 -10 -10z"/>
<path d="M1550 1120 c-12 -8 -10 -10 8 -10 13 0 20 4 17 10 -7 12 -6 12 -25 0z"/>
</g>
</svg>
